<?xml version="1.0" encoding="utf-8"?>
<!-- Generator: Adobe Illustrator 19.1.0, SVG Export Plug-In . SVG Version: 6.00 Build 0)  -->
<svg version="1.1" id="圖層_1" xmlns="http://www.w3.org/2000/svg" xmlns:xlink="http://www.w3.org/1999/xlink" x="0px" y="0px"
	 viewBox="0 0 960 560" style="enable-background:new 0 0 960 560;" xml:space="preserve">
<style type="text/css">
	.st0{fill:#505050;}
	.st1{fill:none;}
</style>
<rect x="463.7" y="272.6" class="st0" width="21.5" height="16.3"/>
<g>
	<path class="st1" d="M491.6,292.6L491.6,292.6c0,2-1.5,3.7-3.5,3.9C490,296.3,491.6,294.7,491.6,292.6z"/>
	<path class="st0" d="M488.1,296.6h1.1c2.8,0,5-2.2,5-5v-1.4h-5.6v1.6c0,1.1-0.9,2-2,2h-4.4h-5.5c-1.1,0-2-0.9-2-2v-0.7h-2.9v1.5
		c0,2.2,1.8,4,4,4h11.7C487.7,296.6,487.9,296.6,488.1,296.6"/>
</g>
<path class="st0" d="M494.1,269.7c0-2.7-2.3-5-5-5h-1.1c-0.2,0-0.3-0.1-0.5-0.1h-1.4h-10.3c-2.2,0-4,1.8-4,4v1.5h2.9v-0.5
	c0-1.1,0.9-2,2-2h5.3h4.5c1.1,0,2,0.9,2,2v1.4h5.6V269.7z"/>
<path class="st0" d="M494.2,288.8h-4.1c-1.1,0-2-0.9-2-2v-12.3c0-1.1,0.9-2,2-2h4.1c1.1,0,2,0.9,2,2v12.3
	C496.2,288,495.3,288.8,494.2,288.8z"/>
</svg>
