<?xml version="1.0" encoding="utf-8"?>
<!-- Generator: Adobe Illustrator 19.1.0, SVG Export Plug-In . SVG Version: 6.00 Build 0)  -->
<svg version="1.1" id="圖層_1" xmlns="http://www.w3.org/2000/svg" xmlns:xlink="http://www.w3.org/1999/xlink" x="0px" y="0px"
	 viewBox="0 0 50 48" style="enable-background:new 0 0 50 48;" xml:space="preserve">
<style type="text/css">
	.st0{fill:#505050;}
	.st1{fill:none;}
</style>
<rect x="7.7" y="17.6" class="st0" width="21.5" height="16.3"/>
<g>
	<path class="st1" d="M35.6,37.6L35.6,37.6c0,2-1.5,3.7-3.5,3.9C34,41.3,35.6,39.7,35.6,37.6z"/>
	<path class="st0" d="M32.1,41.6h1.1c2.8,0,5-2.2,5-5v-1.4h-5.6v1.6c0,1.1-0.9,2-2,2h-4.4h-5.5c-1.1,0-2-0.9-2-2v-0.7h-2.9v1.5
		c0,2.2,1.8,4,4,4h11.7C31.7,41.6,31.9,41.6,32.1,41.6"/>
</g>
<path class="st0" d="M38.1,14.7c0-2.7-2.3-5-5-5h-1.1c-0.2,0-0.3-0.1-0.5-0.1h-1.4H19.9c-2.2,0-4,1.8-4,4v1.5h2.9v-0.5
	c0-1.1,0.9-2,2-2h5.3h4.5c1.1,0,2,0.9,2,2V16h5.6V14.7z"/>
<path class="st0" d="M38.2,33.8h-4.1c-1.1,0-2-0.9-2-2V19.6c0-1.1,0.9-2,2-2h4.1c1.1,0,2,0.9,2,2v12.3C40.2,33,39.3,33.8,38.2,33.8z
	"/>
</svg>
