<?xml version="1.0" encoding="utf-8"?>
<!-- Generator: Adobe Illustrator 19.1.0, SVG Export Plug-In . SVG Version: 6.00 Build 0)  -->
<svg version="1.1" id="圖層_1" xmlns="http://www.w3.org/2000/svg" xmlns:xlink="http://www.w3.org/1999/xlink" x="0px" y="0px"
	 viewBox="0 0 76.9 78.1" style="enable-background:new 0 0 76.9 78.1;" xml:space="preserve">
<style type="text/css">
	.st0{fill:#848482;}
	.st1{fill:#FFFFFF;}
</style>
<g>
	<circle class="st0" cx="38.6" cy="39.3" r="35.3"/>
	<g>
		<path class="st1" d="M59.7,34.3l-4.3-3.3V20.5c0-1.4-1.1-2.5-2.5-2.5s-2.5,1.1-2.5,2.5V27l-10-7.8c-0.9-0.7-2.2-0.7-3.1,0
			l-19.3,15c-1.1,0.8-1.3,2.4-0.4,3.5c0.8,1.1,2.4,1.3,3.5,0.4l17.7-13.8l17.7,13.8c0.5,0.4,1,0.5,1.5,0.5c0.7,0,1.5-0.3,2-1
			C60.9,36.7,60.8,35.1,59.7,34.3z"/>
		<path class="st1" d="M50.9,37c-1.4,0-2.5,1.1-2.5,2.5v16h-19v-16c0-1.4-1.1-2.5-2.5-2.5s-2.5,1.1-2.5,2.5V58
			c0,1.4,1.1,2.5,2.5,2.5h24c1.4,0,2.5-1.1,2.5-2.5V39.5C53.4,38.1,52.3,37,50.9,37z"/>
	</g>
</g>
</svg>
