<?xml version="1.0" encoding="utf-8"?>
<!-- Generator: Adobe Illustrator 19.1.0, SVG Export Plug-In . SVG Version: 6.00 Build 0)  -->
<svg version="1.1" id="圖層_1" xmlns="http://www.w3.org/2000/svg" xmlns:xlink="http://www.w3.org/1999/xlink" x="0px" y="0px"
	 viewBox="0 0 101.3 101.3" style="enable-background:new 0 0 101.3 101.3;" xml:space="preserve">
<style type="text/css">
	.st0{fill:#7D7E7B;}
	.st1{fill:#FFFFFF;}
</style>
<g>
	<circle class="st0" cx="50.5" cy="50.5" r="47.8"/>
	<path class="st1" d="M78,31.8H56.3v-3.5c0-1.6-1.6-3.5-3.2-3.5H25.4c-1.6,0-3.2,1.8-3.2,3.5v7.5v1.8v8.4V72c0,2.8,2.2,4.7,5.1,4.7
		h22.9v-6h-21V48.5V37.8H56h20.3v7h7v-7.3C83.3,34.7,80.9,31.8,78,31.8z"/>
	<path class="st1" d="M68.9,51.8h-6.7v-6.4l-10,9.5c10,8.9,10,8.9,10,8.9v-7h6.7c3.4,0,6.4,3,6.4,6.5s-2.9,6.5-6.4,6.5h-9.7
		c-1.4,0-2.5,1.1-2.5,2.5s1.1,2.5,2.5,2.5h9.7c6.3,0,11.4-5.2,11.4-11.5S75.2,51.8,68.9,51.8z"/>
</g>
</svg>
