<?xml version="1.0" encoding="utf-8"?>
<!-- Generator: Adobe Illustrator 19.1.0, SVG Export Plug-In . SVG Version: 6.00 Build 0)  -->
<svg version="1.1" id="圖層_1" xmlns="http://www.w3.org/2000/svg" xmlns:xlink="http://www.w3.org/1999/xlink" x="0px" y="0px"
	 viewBox="0 0 35 35" style="enable-background:new 0 0 35 35;" xml:space="preserve">
<style type="text/css">
	.st0{fill:#505050;}
</style>
<path class="st0" d="M22.4,5.5v-4h-10v4h-7v4h24v-4H22.4z M20.4,5.5h-6v-2h6V5.5z"/>
<path class="st0" d="M5.5,11.5v4l3,18h18l3-18v-4H5.5z M12.3,29.4c-0.7,0.1-1.3-0.5-1.4-1.1l-1-11.4c-0.1-0.7,0.5-1.3,1.1-1.4h0
	c0.7-0.1,1.3,0.5,1.4,1.1l1,11.4C13.4,28.8,12.9,29.4,12.3,29.4z M18.8,28.2c0,0.7-0.6,1.3-1.3,1.3s-1.3-0.6-1.3-1.3V16.8
	c0-0.7,0.6-1.3,1.3-1.3s1.3,0.6,1.3,1.3V28.2z M24.1,28.3c-0.1,0.7-0.7,1.2-1.4,1.1h0c-0.7-0.1-1.2-0.7-1.1-1.4l1-11.4
	c0.1-0.7,0.7-1.2,1.4-1.1s1.2,0.7,1.1,1.4L24.1,28.3z"/>
</svg>
