<?xml version="1.0" encoding="utf-8"?>
<!-- Generator: Adobe Illustrator 19.1.0, SVG Export Plug-In . SVG Version: 6.00 Build 0)  -->
<svg version="1.1" id="圖層_1" xmlns="http://www.w3.org/2000/svg" xmlns:xlink="http://www.w3.org/1999/xlink" x="0px" y="0px"
	 viewBox="0 0 198 198" style="enable-background:new 0 0 198 198;" xml:space="preserve">
<style type="text/css">
	.st0{fill:#E8A226;}
	.st1{fill:#FFFFFF;}
</style>
<g>
	<path class="st0" d="M185.1,191.2H16.8c-3.3,0-6-2.7-6-6V17c0-3.3,2.7-6,6-6h168.2c3.3,0,6,2.7,6,6v168.2
		C191.1,188.5,188.4,191.2,185.1,191.2z"/>
	<path class="st1" d="M134.2,137.6H65.7c-3.9,0-7-3.1-7-7v-47c0-3.8,3.1-7,7-7h68.5c3.9,0,7,3.2,7,7v47
		C141.2,134.5,138,137.6,134.2,137.6z"/>
	<path class="st1" d="M100.2,98.6H62.7c-2.2,0-4-1.8-4-4v-24c0-2.2,1.8-4,4-4h37.5c2.2,0,4,1.8,4,4v24
		C104.2,96.8,102.4,98.6,100.2,98.6z"/>
	<rect x="67.9" y="83.7" class="st0" width="64" height="44.9"/>
</g>
</svg>
