<?xml version="1.0" encoding="utf-8"?>
<!-- Generator: Adobe Illustrator 19.1.0, SVG Export Plug-In . SVG Version: 6.00 Build 0)  -->
<svg version="1.1" id="圖層_1" xmlns="http://www.w3.org/2000/svg" xmlns:xlink="http://www.w3.org/1999/xlink" x="0px" y="0px"
	 viewBox="0 0 37.6 37" style="enable-background:new 0 0 37.6 37;" xml:space="preserve">
<style type="text/css">
	.st0{fill:#505050;}
</style>
<g>
	<path class="st0" d="M28.8,20.2c-0.8-0.8-2-0.8-2.8,0c0,0-0.1,0.1-0.1,0.1l-5,5c-0.8,0.8-0.8,2,0,2.8c0.8,0.8,2,0.8,2.8,0l1.8-1.8
		v7.2c0,1.1,0.9,2,2,2s2-0.9,2-2v-7.2l1.8,1.8c0.8,0.8,2,0.8,2.8,0c0.8-0.8,0.8-2,0-2.8L28.8,20.2z"/>
	<path class="st0" d="M34.5,4.7h-14V2.5c0-1.1-0.9-1.9-2-1.9H2.5c-1.1,0-2,0.8-2,1.9v3.8c0,0.1,0,0.1,0,0.2v22c0,1.1,0.9,2.1,2,2.1
		h15v-4h-13V12V7.7h16h12v13h4V6.5C36.4,5.4,35.6,4.7,34.5,4.7z"/>
</g>
</svg>
