<?xml version="1.0" encoding="utf-8"?>
<!-- Generator: Adobe Illustrator 19.1.0, SVG Export Plug-In . SVG Version: 6.00 Build 0)  -->
<svg version="1.1" id="圖層_1" xmlns="http://www.w3.org/2000/svg" xmlns:xlink="http://www.w3.org/1999/xlink" x="0px" y="0px"
	 viewBox="0 0 37.6 37" style="enable-background:new 0 0 37.6 37;" xml:space="preserve">
<style type="text/css">
	.st0{fill:#505050;}
</style>
<g>
	<path class="st0" d="M34.4,4.7h-14v-2c0-1.1-0.9-2-2-2H2.4c-1.1,0-2,0.9-2,2v3.8c0,0.1,0,0.1,0,0.2v22c0,1.1,0.9,2,2,2h15v-4h-13
		V12.2V7.7h16h12v15h4v-16C36.4,5.6,35.5,4.7,34.4,4.7z"/>
	<path class="st0" d="M34.4,25.7h-3.9v-3.9c0-1.1-0.9-2.1-2-2.1h0c-1.1,0-2,1-2,2.1v3.9h-4c-1.1,0-2,0.9-2,2v0c0,1.1,0.9,1.9,2,1.9
		h4v4c0,1.1,0.9,2,2,2h0c1.1,0,2-0.9,2-2v-4h3.9c1.1,0,2.1-0.9,2.1-1.9v0C36.4,26.6,35.5,25.7,34.4,25.7z"/>
</g>
</svg>
